<?xml version="1.0" standalone="no"?><!DOCTYPE svg PUBLIC "-//W3C//DTD SVG 1.1//EN" "http://www.w3.org/Graphics/SVG/1.1/DTD/svg11.dtd"><svg t="1676991641615" class="icon" viewBox="0 0 1024 1024" version="1.1" xmlns="http://www.w3.org/2000/svg" p-id="1687" xmlns:xlink="http://www.w3.org/1999/xlink" width="200" height="200"><path d="M870.4 102.4v819.2H153.6V102.4h716.8m0-102.4H153.6C97.28 0 51.2 46.08 51.2 102.4v819.2c0 56.32 46.08 102.4 102.4 102.4h716.8c56.32 0 102.4-46.08 102.4-102.4V102.4c0-56.32-46.08-102.4-102.4-102.4z" p-id="1688" fill="#bfbfbf"></path><path d="M307.2 460.8h409.6c30.72 0 51.2 20.48 51.2 51.2s-20.48 51.2-51.2 51.2H307.2c-30.72 0-51.2-20.48-51.2-51.2s20.48-51.2 51.2-51.2z m0 204.8h409.6c30.72 0 51.2 20.48 51.2 51.2s-20.48 51.2-51.2 51.2H307.2c-30.72 0-51.2-20.48-51.2-51.2s20.48-51.2 51.2-51.2z m0-409.6h102.4c30.72 0 51.2 20.48 51.2 51.2s-20.48 51.2-51.2 51.2H307.2c-30.72 0-51.2-20.48-51.2-51.2s20.48-51.2 51.2-51.2z" p-id="1689" fill="#bfbfbf"></path></svg>