<?xml version="1.0" standalone="no"?><!DOCTYPE svg PUBLIC "-//W3C//DTD SVG 1.1//EN" "http://www.w3.org/Graphics/SVG/1.1/DTD/svg11.dtd"><svg t="1677052436632" class="icon" viewBox="0 0 1024 1024" version="1.1" xmlns="http://www.w3.org/2000/svg" p-id="8737" xmlns:xlink="http://www.w3.org/1999/xlink" width="200" height="200"><path d="M768 128a128 128 0 0 1 127.84 121.6L896 256v577.312c0 51.104-56.544 80.96-98.432 53.984l-4-2.784-56.224-42.24-72.64 57.28a64 64 0 0 1-74.464 3.488l-4.448-3.2-73.76-57.28-73.664 57.28a64 64 0 0 1-74.656 2.816l-4.448-3.2-72-57.216-57.088 42.432c-40.896 30.4-98.432 3.072-102.016-46.496L128 833.312V256a128 128 0 0 1 121.6-127.84L256 128h512z m0 64H256a64 64 0 0 0-63.84 59.2L192 256v577.312l57.088-42.432a64 64 0 0 1 73.6-1.92l4.384 3.168 72 57.184 73.664-57.28a64 64 0 0 1 74.112-3.168l4.448 3.168 73.76 57.28 72.64-57.28a64 64 0 0 1 73.6-4l4.48 3.04L832 833.312V256a64 64 0 0 0-59.2-63.84L768 192z m-112.576 336a32 32 0 0 1 3.712 63.776l-3.712 0.224h-286.848a32 32 0 0 1-3.712-63.776l3.712-0.224h286.848z m0-176a32 32 0 0 1 3.712 63.776l-3.712 0.224h-286.848a32 32 0 0 1-3.712-63.776l3.712-0.224h286.848z" fill="#bfbfbf" p-id="8738"></path></svg>