<?xml version="1.0" standalone="no"?><!DOCTYPE svg PUBLIC "-//W3C//DTD SVG 1.1//EN" "http://www.w3.org/Graphics/SVG/1.1/DTD/svg11.dtd"><svg t="1676991673378" class="icon" viewBox="0 0 1024 1024" version="1.1" xmlns="http://www.w3.org/2000/svg" p-id="2094" xmlns:xlink="http://www.w3.org/1999/xlink" width="200" height="200"><path d="M287.232 611.328V768a25.6 25.6 0 1 0 51.2 0v-156.672a25.6 25.6 0 1 0-51.2 0zM249.344 460.8L460.8 312.32l124.416 135.68a27.136 27.136 0 0 0 6.656 5.12H614.4a27.136 27.136 0 0 0 7.68-3.584l219.648-153.6a27.648 27.648 0 0 0-28.16-39.936l-204.8 141.824L483.84 256a27.648 27.648 0 0 0-35.84 0 26.624 26.624 0 0 0-7.168 0L217.6 409.6a27.648 27.648 0 0 0 31.744 51.2zM439.808 503.808V768a25.6 25.6 0 1 0 51.2 0V503.808a25.6 25.6 0 1 0-51.2 0zM744.448 503.808V768a25.6 25.6 0 1 0 51.2 0V503.808a25.6 25.6 0 1 0-51.2 0zM592.384 611.328V768a25.6 25.6 0 1 0 51.2 0v-156.672a25.6 25.6 0 1 0-51.2 0z" fill="#bfbfbf" p-id="2095"></path><path d="M880.128 870.4H271.872a102.4 102.4 0 0 1-102.4-102.4V198.144a25.6 25.6 0 0 0-51.2 0V768a153.6 153.6 0 0 0 153.6 153.6h608.256a25.6 25.6 0 1 0 0-51.2z" fill="#bfbfbf" p-id="2096"></path></svg>