<?xml version="1.0" standalone="no"?><!DOCTYPE svg PUBLIC "-//W3C//DTD SVG 1.1//EN" "http://www.w3.org/Graphics/SVG/1.1/DTD/svg11.dtd"><svg t="1676991450302" class="icon" viewBox="0 0 1186 1024" version="1.1" xmlns="http://www.w3.org/2000/svg" p-id="10570" xmlns:xlink="http://www.w3.org/1999/xlink" width="231.640625" height="200"><path d="M926.254545 235.054545c-39.563636-58.181818-118.690909-86.109091-218.763636-76.8-55.854545-30.254545-121.018182-48.872727-190.836364-48.872727h-18.618181c-223.418182 11.636364-393.309091 197.818182-384 421.236364 0 6.981818 2.327273 11.636364 2.327272 18.618182-53.527273 97.745455-60.509091 188.509091-18.618181 251.345454 37.236364 53.527273 102.4 79.127273 183.854545 79.127273 18.618182 0 39.563636-2.327273 60.509091-4.654546 53.527273 25.6 111.709091 39.563636 174.545454 39.563637h18.618182c221.090909-9.309091 393.309091-197.818182 384-421.236364 0-6.981818-2.327273-13.963636-2.327272-20.945454 44.218182-90.763636 51.2-176.872727 9.30909-237.381819z m-37.236363 25.6c23.272727 32.581818 25.6 76.8 9.309091 128-23.272727-72.145455-67.490909-134.981818-123.345455-183.854545 51.2 4.654545 90.763636 23.272727 114.036364 55.854545z m-635.345455 11.636364c65.163636-69.818182 151.272727-111.709091 246.690909-116.363636h16.290909c179.2 0 325.818182 130.327273 351.418182 304.872727-44.218182 81.454545-125.672727 169.890909-230.4 242.036364-97.745455 67.490909-202.472727 109.381818-290.909091 123.345454-107.054545-58.181818-181.527273-167.563636-186.181818-297.890909-4.654545-95.418182 27.927273-186.181818 93.090909-256zM134.981818 772.654545c-23.272727-34.909091-25.6-86.109091-4.654545-146.618181 25.6 81.454545 74.472727 153.6 139.636363 202.472727-60.509091 2.327273-109.381818-16.290909-134.981818-55.854546z m644.654546-20.945454c-65.163636 69.818182-151.272727 111.709091-246.690909 116.363636h-16.29091c-30.254545 0-60.509091-4.654545-90.763636-11.636363 76.8-23.272727 158.254545-60.509091 239.709091-116.363637 86.109091-58.181818 155.927273-125.672727 204.8-193.163636-6.981818 74.472727-39.563636 146.618182-90.763636 204.8z" fill="#22dc8b" p-id="10571"></path><path d="M400.290909 411.927273h13.963636c48.872727-6.981818 83.781818-53.527273 76.8-102.4-6.981818-44.218182-46.545455-76.8-90.763636-76.8h-13.963636c-48.872727 6.981818-83.781818 53.527273-76.8 102.4 6.981818 44.218182 46.545455 76.8 90.763636 76.8z m-34.909091-116.363637c6.981818-9.309091 16.290909-16.290909 27.927273-16.290909h6.981818c20.945455 0 39.563636 16.290909 44.218182 37.236364 4.654545 23.272727-13.963636 46.545455-37.236364 51.2h-6.981818c-20.945455 0-39.563636-16.290909-44.218182-37.236364-2.327273-13.963636 2.327273-25.6 9.309091-34.909091zM374.690909 709.818182c6.981818 0 11.636364 0 18.618182-2.327273 69.818182-9.309091 118.690909-74.472727 107.054545-144.290909-9.309091-62.836364-62.836364-109.381818-125.672727-109.381818-6.981818 0-11.636364 0-18.618182 2.327273-69.818182 9.309091-118.690909 74.472727-107.054545 144.290909 9.309091 65.163636 62.836364 109.381818 125.672727 109.381818z m-11.636364-207.127273h11.636364c39.563636 0 74.472727 30.254545 79.127273 69.818182 6.981818 44.218182-23.272727 86.109091-67.490909 93.090909h-11.636364c-39.563636 0-74.472727-30.254545-79.127273-69.818182-6.981818-46.545455 23.272727-86.109091 67.490909-93.090909zM621.381818 518.981818h13.963637c53.527273-6.981818 93.090909-58.181818 83.781818-114.036363-6.981818-48.872727-48.872727-86.109091-97.745455-86.109091h-13.963636c-53.527273 6.981818-93.090909 58.181818-83.781818 114.036363 4.654545 51.2 48.872727 86.109091 97.745454 86.109091z m-44.218182-132.654545c9.309091-11.636364 20.945455-18.618182 34.909091-20.945455h6.981818c25.6 0 48.872727 18.618182 53.527273 46.545455 2.327273 13.963636-2.327273 27.927273-9.309091 39.563636-9.309091 11.636364-20.945455 18.618182-34.909091 20.945455h-6.981818c-25.6 0-48.872727-18.618182-53.527273-46.545455-2.327273-13.963636 2.327273-27.927273 9.309091-39.563636z" fill="#22dc8b" p-id="10572"></path></svg>