<?xml version="1.0" standalone="no"?><!DOCTYPE svg PUBLIC "-//W3C//DTD SVG 1.1//EN" "http://www.w3.org/Graphics/SVG/1.1/DTD/svg11.dtd"><svg t="1676991660057" class="icon" viewBox="0 0 1024 1024" version="1.1" xmlns="http://www.w3.org/2000/svg" p-id="1891" xmlns:xlink="http://www.w3.org/1999/xlink" width="200" height="200"><path d="M512 69.818182a442.181818 442.181818 0 1 0 442.181818 442.181818A442.181818 442.181818 0 0 0 512 69.818182z m0 60.276363A381.905455 381.905455 0 0 1 893.905455 512a378.181818 378.181818 0 0 1-59.345455 203.636364A440.087273 440.087273 0 0 0 593.92 581.818182a180.829091 180.829091 0 1 0-162.909091 0 442.181818 442.181818 0 0 0-241.570909 133.818182A378.181818 378.181818 0 0 1 130.094545 512 381.905455 381.905455 0 0 1 512 130.094545z m0 422.167273a130.792727 130.792727 0 1 1 130.56-130.792727A130.792727 130.792727 0 0 1 512 552.261818z m0 341.643637a381.44 381.44 0 0 1-285.789091-129.163637 380.276364 380.276364 0 0 1 571.578182 0A380.741818 380.741818 0 0 1 512 893.905455z" p-id="1892" fill="#bfbfbf"></path></svg>